<svg id="Layer_1" data-name="Layer 1" xmlns="http://www.w3.org/2000/svg" viewBox="0 0 480 480"><defs><style>.cls-1{fill:none;stroke:#2ec0b8;stroke-linecap:round;stroke-linejoin:round;stroke-width:9px;}</style></defs><title>button</title><path class="cls-1" d="M109.38,338.69c32.39,3.26,61.37-4.71,87.16-24.34a60.24,60.24,0,0,1-33.92-12,58.92,58.92,0,0,1-21-29.41A60.58,60.58,0,0,0,168.2,272c-14.08-3.19-25.47-10.11-34.28-21.07s-13-23.59-13.08-37.88a60.11,60.11,0,0,0,26.69,7.42,71.65,71.65,0,0,1-7.25-5.81,59.46,59.46,0,0,1-11.53-72.19c.53-1,.83-1,1.53-.15a167.62,167.62,0,0,0,79.82,53.61,159.35,159.35,0,0,0,31.78,6.56q4.22.44,8.44.73c.87.06,1.17-.06,1-1.09-3.72-19.54.75-37,13.93-51.91A56.38,56.38,0,0,1,301.6,131c19-2.31,35.62,3.28,49.42,16.69a3.54,3.54,0,0,0,3.73,1.08,120.31,120.31,0,0,0,34.64-13.51c.18-.11.37-.19.79-.4a57.09,57.09,0,0,1-9.77,18.48,59.31,59.31,0,0,1-15.56,13.9c1.85.31,10.85-1.42,16.88-3.1a156.8,156.8,0,0,0,16.12-5.59,49.81,49.81,0,0,1-4.35,6.32,120.74,120.74,0,0,1-24.11,23.57,1.66,1.66,0,0,0-.72,1.68q.29,6.59,0,13.17t-1.07,12.86a166.91,166.91,0,0,1-5.24,26A175.39,175.39,0,0,1,332,302.31a159.86,159.86,0,0,1-57.93,46.94A162,162,0,0,1,229.77,363a186.93,186.93,0,0,1-26.83,2.29A167,167,0,0,1,122,346.11q-6.14-3.18-11.94-6.92Z"/></svg>