<svg id="Layer_1" data-name="Layer 1" xmlns="http://www.w3.org/2000/svg" viewBox="0 0 480 480"><defs><style>.cls-1{fill:none;}.cls-1,.cls-2{stroke:#2ec0b8;stroke-miterlimit:10;stroke-width:9px;}.cls-2{fill:#5f5f5f;}</style></defs><title>button</title><path class="cls-1" d="M267.28,112.56h13.54c.12.37.44.24.69.25a78.13,78.13,0,0,1,9,1.2c10.4,2,20.33,5.62,30.48,8.5.75.21.76.58.59,1.21q-5,19-10,37.94c-.28,1.07-.6.81-1.25.43-2.66-1.55-5.35-3.05-8-4.6a32.37,32.37,0,0,0-27-3c-7.26,2.23-11.81,6.74-13.13,14.37a61.27,61.27,0,0,0-1,10c0,7.41,0,14.82,0,22.23,0,1.14.27,1.44,1.42,1.44,15.56-.05,31.12,0,46.68,0,1.67,0,1.67,0,1.28,1.55-3.1,12.57-6.22,25.14-9.28,37.71-.25,1.05-.63,1.37-1.7,1.37-12.25,0-24.49,0-36.74-.07-1.46,0-1.67.43-1.67,1.74q.06,68.5.06,137c0,1.11-.2,1.44-1.39,1.43q-28.52-.06-57,0c-1.34,0-1.51-.44-1.51-1.61q0-68.43.06-136.86c0-1.38-.32-1.72-1.71-1.71-9.39.06-18.78,0-28.16,0,0-.41-.05-.82-.05-1.24V202.62c.46,0,.92-.05,1.38-.05h26.51c2,0,2,0,2-2.05,0-7,0-14.09,0-21.13a130.1,130.1,0,0,1,1.57-21.59c1.73-10,5.7-18.64,13.57-25.45A78.77,78.77,0,0,1,263,113.09,14.67,14.67,0,0,0,267.28,112.56Z"/><path class="cls-2" d="M171.17,202.6l.28,0v39.22c0,.42,0,.83.05,1.24l-.33.12Z"/></svg>